<?xml version="1.0" standalone="no"?>
<!DOCTYPE svg PUBLIC "-//W3C//DTD SVG 20010904//EN"
 "http://www.w3.org/TR/2001/REC-SVG-20010904/DTD/svg10.dtd">
<svg version="1.0" xmlns="http://www.w3.org/2000/svg"
 width="646.000000pt" height="646.000000pt" viewBox="0 0 646.000000 646.000000"
 preserveAspectRatio="xMidYMid meet">
<metadata>
Created by potrace 1.14, written by Peter Selinger 2001-2017
</metadata>
<g transform="translate(0.000000,646.000000) scale(0.100000,-0.100000)"
fill="#000000" stroke="none">
<path d="M940 6433 c-16 -16 -232 -298 -479 -627 -338 -452 -450 -608 -455
-635 -3 -20 -6 -173 -6 -341 1 -341 8 -409 59 -532 41 -98 79 -154 155 -232
l61 -62 -3 -1872 -2 -1872 -88 0 c-95 0 -124 -10 -156 -53 -25 -34 -28 -110
-7 -150 33 -62 -226 -57 3229 -55 l3151 3 30 29 c29 27 31 35 31 96 0 61 -2
69 -31 96 -29 27 -35 29 -130 32 l-99 4 -2 1871 -3 1872 32 28 c94 82 197 258
222 375 16 75 15 776 -1 805 -24 45 -900 1207 -925 1227 l-26 20 -2263 0
-2264 0 -30 -27z m3569 -295 c36 -78 367 -808 378 -836 4 -10 -88 -12 -453
-10 l-458 3 -22 140 c-12 77 -34 221 -48 320 -15 99 -36 238 -47 309 -11 71
-18 135 -15 142 4 11 63 14 316 14 l311 0 38 -82z m-2819 59 c0 -4 -137 -307
-185 -412 -16 -33 -72 -157 -126 -275 l-97 -215 -436 -3 c-324 -2 -436 1 -436
9 0 7 35 57 77 113 42 56 138 182 213 281 75 99 169 223 209 275 40 52 96 125
124 163 l51 67 303 0 c167 0 303 -2 303 -3z m950 -14 c-1 -22 -19 -156 -55
-393 -15 -96 -33 -222 -40 -280 -8 -58 -20 -133 -26 -167 l-11 -63 -458 0
-458 0 48 113 c63 147 161 372 250 577 40 91 79 180 86 198 l14 32 325 0 c303
0 325 -1 325 -17z m915 -15 c3 -18 9 -60 15 -93 5 -33 21 -132 35 -220 15 -88
35 -214 46 -280 10 -66 25 -157 32 -202 8 -45 12 -85 9 -88 -3 -3 -214 -5
-469 -5 l-463 0 5 38 c3 20 12 87 21 147 9 61 24 166 34 235 10 69 30 205 44
303 14 98 28 183 31 188 4 5 143 9 330 9 l324 0 6 -32z m1862 -25 c22 -27 127
-163 233 -303 106 -140 242 -319 302 -397 59 -78 108 -147 108 -152 0 -8 -136
-11 -435 -11 l-435 0 -50 106 c-28 58 -50 108 -50 110 0 2 -17 41 -39 86 -21
46 -87 191 -146 323 -59 132 -112 244 -116 250 -31 33 -13 35 290 35 l299 0
39 -47z m-4179 -1376 c2 -201 -1 -259 -14 -310 -62 -242 -305 -399 -553 -357
-142 24 -280 119 -344 238 -58 108 -67 163 -67 428 0 132 3 244 7 247 3 4 223
6 487 5 l481 -3 3 -248z m1240 -6 c3 -275 -2 -311 -54 -413 -38 -74 -137 -169
-216 -206 -230 -108 -509 -26 -634 186 -62 104 -67 136 -72 410 -2 139 -1 260
2 268 5 12 72 14 488 12 l483 -3 3 -254z m1242 244 c9 -11 11 -76 7 -262 -4
-212 -7 -257 -24 -309 -92 -280 -407 -415 -677 -291 -124 58 -210 153 -257
288 -20 58 -23 87 -27 302 -2 131 -1 249 2 263 l6 24 479 0 c410 0 480 -2 491
-15z m1245 -250 c0 -285 -4 -311 -66 -422 -39 -68 -139 -159 -214 -194 -267
-125 -588 15 -674 295 -19 62 -21 92 -21 320 0 139 3 256 7 259 3 4 223 6 487
5 l481 -3 0 -260z m1243 25 c3 -264 -6 -329 -61 -434 -147 -278 -541 -338
-766 -117 -70 68 -108 132 -133 220 -15 55 -18 104 -18 312 0 135 3 249 7 252
3 4 223 6 487 5 l481 -3 3 -235z m-4779 -695 c159 -200 460 -297 726 -235 151
34 260 94 369 202 49 48 92 88 95 87 3 0 20 -19 36 -42 70 -97 216 -193 358
-239 98 -31 290 -36 393 -10 86 22 183 64 254 112 48 32 180 158 180 172 0 21
28 4 55 -34 41 -56 144 -140 225 -182 36 -19 113 -47 170 -62 92 -24 116 -26
214 -21 202 10 358 79 504 223 47 46 87 84 90 84 3 0 32 -29 65 -65 107 -118
222 -185 384 -226 76 -19 104 -21 203 -15 63 3 132 9 153 12 l37 6 -2 -1793
-3 -1794 -1505 0 -1505 0 -5 1501 c-5 1484 -5 1502 -25 1524 -47 52 -11 50
-927 49 -657 0 -861 -3 -888 -13 -19 -7 -45 -28 -57 -46 l-23 -33 0 -1494 0
-1493 -232 2 -233 3 -3 1790 c-1 985 0 1795 3 1802 3 9 15 8 47 -4 68 -27 283
-24 368 4 152 50 249 109 350 215 36 37 70 67 75 67 6 0 30 -24 54 -54z m1224
-1157 c3 -79 5 -710 4 -1403 l-2 -1260 -695 0 -695 0 -3 1403 -2 1402 694 0
694 0 5 -142z"/>
<path d="M3432 2900 c-12 -5 -38 -22 -57 -37 l-35 -28 6 -695 c7 -758 4 -728
64 -764 26 -15 127 -16 1115 -16 985 0 1090 2 1121 16 67 32 64 2 64 756 0
733 1 712 -52 751 -28 21 -38 21 -1115 23 -643 2 -1097 -1 -1111 -6z m2016
-767 l-3 -508 -915 0 -915 0 -3 508 -2 507 920 0 920 0 -2 -507z"/>
</g>
</svg>
